<?xml version="1.0" encoding="utf-8"?>
<!-- Generator: Adobe Illustrator 22.0.0, SVG Export Plug-In . SVG Version: 6.00 Build 0)  -->
<svg version="1.1" id="Layer_1" xmlns="http://www.w3.org/2000/svg" xmlns:xlink="http://www.w3.org/1999/xlink" x="0px" y="0px"
	 viewBox="0 0 350 350" style="enable-background:new 0 0 350 350;" xml:space="preserve">
<style type="text/css">
	.st0{fill:#FFFFFF;}
	.st1{stroke:#000000;stroke-width:3.5;stroke-miterlimit:10;}
</style>
<circle class="st0" cx="176" cy="176" r="174"/>
<g id="Layer_2_1_">
	<g id="Layer_1-2">
		<path class="st1" d="M35.1,154.5c0,0,28.8,16.1,67.2-7.9c8.2-4.9,15.8-10.5,23.2-16.5c6.8-5.4,12.9-11.5,20.8-15.4
			c9.7-4.8,20.1-6,30.9-6.3c12.1-0.2,23,1.1,29.1,2.8c2.5,0.7,5,1.5,7.5,2.4c1.6,0.6,3.1,1.4,4.7,1.8c1.3,0.3,2.7,0.2,3.9,0.6
			c1.2,0.4,14.6,4.9,15.9,5s-15.4-5.2-17.1-6s-16.7-7-31.3-7.9c-9.2-0.6-18.4-0.9-27.5,0.4c-8.3,1.2-16.5,4-23.6,8.5
			c-3.7,2.4-6.9,5.5-10.2,8.3c-6.4,5.3-13,10.2-20,14.7c-7.2,4.6-14.9,9.4-22.9,12.6c-9.4,3.8-27.2,8.6-41.4,4.4l3.4,1.6
			C47.7,157.6,37.7,155.9,35.1,154.5z"/>
		<path class="st1" d="M240.2,120.5c0.8,0.3,2.9,0.9,3.4,1.4s1.4,1,1.9,0.2s0-0.7,0.3-0.9s1.1-0.2,0.6-0.8s-3.7-2.4-6.1-0.9
			C239.2,120.3,240.2,120.5,240.2,120.5z"/>
		<path class="st1" d="M246.1,120.9c1.2,0.8,2.4,1.5,3.7,2c2.4,1,5.4,0.7,7.9,0.7c8-0.1,16.7-1,23.8-5.1c1.6-0.9,2.5-0.9,2.1-1.1
			s-1,0.2-1-0.1s1.1-0.8,1.6-1s1.1-1.5-1.2-0.7c-6.7,2.3-13.5,4.3-20.4,5.4c-3.5,0.6-7.1,0.8-10.7,0.9
			C250.1,121.8,247.6,121.9,246.1,120.9z"/>
		<path class="st1" d="M284.8,129.3c-0.4-5.9-0.6-15.6,5.4-18.8c1.9-1,3.7-0.8,5.2,0.8c0.4,0.5,2.4,2.9,2,5.4
			c-0.3,0.9-0.6-1.1-0.9-1.2s-0.2,0.8-0.4,1c0,0-1-1.9-1.1-2.1c-0.8-1.3-2.4-1.9-3.9-1.5s-2.6,1.9-3.1,3.4
			C286.7,120.5,285.8,125,284.8,129.3z"/>
		<path class="st1" d="M298.2,118c3,0.7,6.3,1.2,8.8,3c2,1.5,2.7,3.9,2.9,6.3c0.1,1.8-0.4,3.6-0.3,5.4c0.2,2,1.4,3.8,2.4,5.5
			c0.6,1,2.4,3,2.4,4.1c0,0.5,0.6,1.3-0.4,1.4c-1,0-2-0.5-2.2-0.4s0.6,1.8,0.7,2.5c0.1,0.6,0.5,2.5,0,3.8c-0.2,0.7-1.4,0.4-1.5,0.6
			c-0.1,0.2,1.2,0.2,1.1,0.5c-0.1,0.4-0.3,0.6-2.1,0.6s-0.6,0.5-0.2,0.7c3.4,1.3,5.2-1.7,5.2-4.7c0-0.3,0-0.6,0.1-0.9
			c0.3-0.7,1.2-0.9,1.6-1.8c0.4-1.1,0-2.5-0.4-3.6c-1.4-4.1-3.7-5.9-4.2-7.4c-0.5-1.4-0.3-5.3-0.3-7c0-1.6-0.7-5.1-4.6-7.4
			C304.5,117.7,301.1,117.3,298.2,118L298.2,118z"/>
		<path class="st1" d="M277.3,147.1c2.6,5.2,8.8,9.6,14.8,8.3c2.6-0.5,4.6-2.1,7.3-1c1.5,0.6,3.1,1.8,4.7,2s3.6-1.2,3.4-2.9
			c-0.2,0.1-0.5,0.2-0.7,0.4c-0.7,0.6-1.5,1.9-3.5,0.7s-3.9-3.2-6.6-2.8c-2.8,0.3-3.9,1.3-6.3,1.1c-2.5-0.2-6.6-1.5-9.4-4.6
			s-1.5-0.5-1.8-0.4c-0.2,0.1-1.7-1.2-1.9-1.1C277.1,146.7,277.3,147.1,277.3,147.1z"/>
		<path class="st1" d="M268.1,162.1c-1.4,0.2-3.3,2.7-4.2,3.6c-2.3,2.2-4.5,4.3-6.7,6.5c-6.7,6.5-14.7,11.5-23.1,15.4
			c-8.1,3.8-17.2,6.3-24.8,11.4c-5.1,3.5-9.9,7.6-14.8,11.4c-10.6,8.3-21.7,15.8-33.7,21.9c-2,1-4.4,2.2-6,4
			c-2.6,2.8-3.8,7.2-7.4,8.3c-2.3,0.7-4.9-0.2-6.4-2c-1.6-1.8-2.2-4.3-2.1-6.6c-0.5,2.5,0,5.2,1.6,7.1c1.6,1.9,4.4,2.9,6.8,2.1
			s4-3.1,5.8-4.9c2.7-2.8,6-4.5,9.3-6.4c0.9-0.9,2.8-1.6,4-2.2l4.3-2.4c2.6-1.4,5.1-3,7.7-4.6c5.3-3.4,10.3-7,15.2-10.9
			c7.5-5.8,14.7-12.3,23.2-16.7c5.8-3,12.1-4.8,18-7.5c11.5-5.2,21.5-12.3,29.9-21.7c-0.7,0.5-1.4,0.9-2.1,1.2
			C262.1,169.3,268.6,162.3,268.1,162.1z"/>
		<path class="st1" d="M205.3,208.1c-0.7,1.3,7.9,4,8.8,4.2c5.8,1.6,11.9,1.1,17.8,1.1c1,0,2.2,0,3.1,0.5c1,0.7,1.6,1.7,1.7,2.8
			s0.1,2.3-0.2,3.4l0.9,0.1c-0.2,0.9-0.5,1.7-1,2.4c4-4.5,3.3-11.5-3.7-11.9c-3.1-0.2-6.2,0.4-9.3,0.4c-3.3,0-6.6-0.4-9.8-1.1
			c-1.5-0.3-4,0-5.3-0.8C207.2,208.6,205.5,207.7,205.3,208.1z"/>
		<path class="st1" d="M226.7,217.1c0.2,0.4,0.6,0.6,1.1,0.9c1.2,0.8,3.1,1.3,3.2,3c0,0.4-0.1,0.7-0.2,1.1c-0.3,1.1-0.9,2-1.7,2.8
			c0.6-0.2,1.3-0.3,1.9-0.4c3.5-0.9,1.2-5.7-0.2-7.5c-0.5-0.7-1.2-1.4-2.1-1.6c-0.7-0.2-1.8,0.3-2,1.1
			C226.6,216.6,226.6,216.8,226.7,217.1z"/>
		<path class="st1" d="M197.9,189.7L197.9,189.7c2.2-6.5,8.9-15,16.1-16.1c2.8-0.4,5.7-0.4,8.5-0.8c1.4-0.2,2.8-0.5,4.2-0.9
			c1.1-0.4,2.2-1.3,3.3-1.5c-1.2,1.6-2.8,2.8-4.7,3.6c-2.1,0.8-4.4,0.3-6.6,0.6c-8.9,1.1-14,9.7-19.1,16c-0.3,0.4-0.7,0.8-1.2,1.1
			c-0.1-0.1-0.1-0.3,0-0.5c0.1-0.1,0.2-0.2,0.3-0.4c0.2-0.3,0.2-0.6,0.1-0.9C198.5,189.7,198.2,189.6,197.9,189.7z"/>
		<path class="st1" d="M188.8,179.3c5-4,7.9-10.9,9.7-16.8c0.8-2.7,1.8-7,4.4-8.6c0.9-0.5,1.8-0.8,2.8-0.9c6.5-1,13-0.4,19.5-1.1
			c1.5-0.2,3.1-0.3,4.5-0.8c1.6-0.6,2.9-1.6,4.5-2.2c-0.5,0.1-1,0-1.4-0.4c-0.1-0.1-0.1-0.2-0.1-0.3c0-0.2,0.3-0.4,0.5-0.4l2.8-0.9
			c-2-0.1-3.5,0.8-5.3,1.3c-5.7,1.5-10.8,1.4-16.6,1.3c-3.7-0.1-7.9-0.5-11.2,1.7c-3.7,2.4-5.3,7.3-6.5,11.3
			c-0.8,2.5-1.4,5.1-2.3,7.6C192.8,173.1,191.5,177.2,188.8,179.3z"/>
		<path class="st1" d="M144.2,231.8c-0.4-0.4-3.3,4.1-0.3,7.3s3.8,1.1,4.2,0.5c0.3-0.6,0.5-0.1,0.9-0.5s-0.1-1.2-1.4-1.1
			s-3.1-1.9-3.2-3.5C144.2,232.9,144.4,232.1,144.2,231.8z"/>
		<path class="st1" d="M148.4,230.4c1.6-1.5,2-2.8,4.3-3.3c3.6-0.8,7.1-2.1,10.4-3.9c1.7-1,3.3-2.1,4.7-3.3c0.6-0.5,3.6-2.7,3.5-3.6
			c-0.1-0.8-1.3-0.2-1.1-0.7c0.2-0.5,1.4-1.5,0.7-1.6c-0.7-0.1-1.6,1.6-3.4,3c-2.7,2.2-5.7,4-8.8,5.5c-2.1,1-4.4,1.3-6.4,2.4
			C150.5,225.9,148.7,228.3,148.4,230.4z"/>
		<path class="st1" d="M150.8,208.6c0.5,1.3,0.4,2.7,0.7,4c0.4,1.7,1.5,3.3,3,4c3.4,1.4,7.5-0.9,10.9-1.5c3.2-0.5,6.4-0.7,9.6-0.4
			c2.4,0.2,5.1,0.7,7.5,0.1c1.2-0.3,5.9-2.5,5.9-4.1c0-0.3-0.9-0.1-0.7-0.6c0.2-0.5,1.6-1.6,1.2-1.7c-0.9-0.2-3,1.9-3.8,2.3
			c-2.4,1.3-5.1,1.8-7.7,1.5c-6.2-0.5-11.7,0.4-17.5,2.5c-1.8,0.7-4.7,1.4-5.9,0.2C152.2,213.3,151.3,210.9,150.8,208.6z"/>
		<path class="st1" d="M156.1,204.6c-0.5-0.6-2.6,2.6-1.7,5.5s2.5,3.6,3.1,3.2s1-0.6,1.1-1.4c0.1-0.8,0.7-1.9-0.1-1.8
			c-0.7,0.1-2.2,0.1-2.4-1.5c-0.3-1.6,0.7-1.7,0.4-2.3S156.4,205,156.1,204.6z"/>
		<path class="st1" d="M163.8,206.1c3-0.8,5.1-0.2,8,0.4c2.1,0.4,5.5,0.3,7.3-1.1c1.2-0.9,2.4-2.8,1.9-3.4s-0.5-0.8-0.3-1.1
			s-0.8-0.2-2,0.9c-1.7,1.6-3.7,2.6-6.1,2.4c-1.7-0.1-3.4-0.8-5.1-0.6c-1,0.1-1.5,0.5-2.3,1C165,204.9,163.4,206.2,163.8,206.1z"/>
		<path class="st1" d="M186.3,193.7c0.6-0.2,2.6,2.6,2.9,3.1c1,1.5,0.8,2.2,0.7,4c0,0.1,0,0.2,0.1,0.4c0.1,0.3,0.5,0.3,0.8,0.3
			c0.4,0.1,1.9,2,1.8-0.2c-0.1-1.3,1.1-4.6-2-6.7C189.3,193.5,188,193.1,186.3,193.7z"/>
		<path class="st1" d="M161,156.3c0.4-0.2-2.3,2.8-4.1,5.1s-2.6,9-4.1,11.8s-4.6,7.1-4.6,7.7s-1.2,3.9,3.5,6s7.5,1.8,7.5,2.3
			s-4.7-0.8-7.3-0.9c-2.6-0.1-6.1-3.8-5.6-5.6c0.5-1.9,1.5-4.5,4.3-8.7s1.9-7.9,2.3-9.2s1.5-3,0.7-3s-4.2,2-8.3,2.5
			c-4.2,0.5-12.8-0.6-15.7-3.6c-3-3-3.5-2.4-2.9-2.6s2.8,1.1,3.1,1c0.3-0.1-0.7-1.5-0.3-1.5c0.4,0,1.6,2.8,8.1,3.9
			C143.9,162.6,150.8,160.4,161,156.3z"/>
		<path class="st1" d="M177.5,120.1c0,0,2.9,1.9,3.1,2c2,1.4,3.6,3.2,4.8,5.2c2.7,4.8,3,10.3,1.5,15.5c-1.4,5-5.1,8.8-8.4,12.6
			c-3.7,4.2-8.3,8.1-10.7,13.2c-1.6,3.3-1.6,7.5,0.5,10.6c4.9,7.3,16.5,7.4,24.2,9.5c5.8,1.6,6,8.7,2.9,13c4-4.2,3.9-10.8-1.4-13.7
			c-3.7-2-7.9-2.8-11.9-4c-3.4-1.1-8.3-2-10.9-4.5c-4.4-4.2-1.6-10,1.7-13.8c2.6-3,5.4-5.9,7.9-8.9c4.9-5.9,9.7-12.8,9.6-20.8
			c0-0.4,0-0.8-0.1-1.2c-0.4-4.8-3.6-11.7-8-14.1c-1.1-0.8,1.3,1.4,0.8,1.7C182.5,122.7,177.9,119.5,177.5,120.1z"/>
	</g>
</g>
</svg>
