<?xml version="1.0" encoding="utf-8"?>
<!-- Generator: Adobe Illustrator 22.0.0, SVG Export Plug-In . SVG Version: 6.00 Build 0)  -->
<svg version="1.1" id="Layer_1" xmlns="http://www.w3.org/2000/svg" xmlns:xlink="http://www.w3.org/1999/xlink" x="0px" y="0px"
	 viewBox="0 0 714.5 354.2" style="enable-background:new 0 0 714.5 354.2;" xml:space="preserve">
<style type="text/css">
	.st0{fill:#000000;stroke:#000000;stroke-width:3.5;stroke-miterlimit:10;}
</style>
<title>logo</title>
<g id="Layer_2_1_">
	<g id="Layer_1-2">
		<path class="st0" d="M0.7,122.5c0,0,72.8,40.8,170-20c20.6-12.3,40-26.7,58.7-41.7c17.1-13.7,32.6-29.1,52.5-39
			C306.5,9.6,332.9,6.6,360,6c30.5-0.5,58.3,2.8,73.5,7c6.4,1.8,12.7,3.8,18.9,6.1c4,1.5,7.8,3.6,12,4.6c3.3,0.8,6.8,0.5,9.9,1.5
			c3,1,37,12.5,40.3,12.7c3.3,0.3-39-13.3-43.3-15.3S429,5,392.2,2.8c-23.2-1.4-46.5-2.3-69.6,1c-21,3-41.7,10-59.6,21.5
			c-9.4,6.1-17.4,13.8-25.9,20.9c-16.1,13.4-32.9,25.9-50.5,37.3c-18.2,11.8-37.8,23.7-57.9,31.8C105,124.8,60,137,24,126.3l8.5,4
			C32.5,130.3,7.2,126,0.7,122.5z"/>
		<path class="st0" d="M519.4,36.6c2.1,0.8,7.4,2.3,8.6,3.6s3.5,2.6,4.8,0.6s0-1.8,0.8-2.4s2.9-0.5,1.6-2.1s-9.4-6.1-15.5-2.3
			C516.9,36.1,519.4,36.6,519.4,36.6z"/>
		<path class="st0" d="M534.2,37.5c2.9,2,6.1,3.7,9.3,5.1c6.1,2.6,13.6,1.9,20.1,1.8c20.2-0.3,42.2-2.6,60.1-12.9
			c4.1-2.4,6.3-2.3,5.4-2.9s-2.5,0.6-2.5-0.3s2.8-2.1,4-2.6s2.8-3.8-3-1.8c-16.8,5.9-34,10.9-51.7,13.6c-9,1.4-18,2.1-27.1,2.2
			C544.4,39.8,538.2,40.1,534.2,37.5z"/>
		<path class="st0" d="M632.2,58.8c-1-14.9-1.5-39.5,13.8-47.5c4.9-2.6,9.5-2,13.1,2c1.1,1.3,6.1,7.3,5,13.6c-0.8,2.3-1.5-2.9-2.3-3
			s-0.5,2-1.1,2.5c-0.1,0.1-2.5-4.9-2.8-5.3c-2.1-3.2-6.1-4.7-9.8-3.7c-3.9,1-6.5,4.8-7.7,8.6C636.9,36.7,634.8,47.9,632.2,58.8z"/>
		<path class="st0" d="M666,30.1c7.5,1.8,15.9,2.9,22.2,7.6c5,3.7,6.9,9.9,7.3,15.9c0.4,4.6-1.1,9.2-0.7,13.7
			c0.5,5.1,3.5,9.5,6,13.8c1.5,2.5,6,7.5,6,10.5c0,1.3,1.5,3.4-1.1,3.5s-5-1.4-5.5-1.1s1.5,4.6,1.8,6.3s1.4,6.3,0.1,9.5
			c-0.6,1.8-3.5,1.1-3.9,1.6s3,0.4,2.8,1.4s-0.9,1.6-5.4,1.6s-1.5,1.4-0.5,1.8c8.7,3.3,13.1-4.4,13.2-11.9c-0.1-0.8,0-1.5,0.3-2.3
			c0.7-1.8,3.1-2.3,3.9-4.5c1-2.8,0-6.3-0.9-9.1c-3.6-10.4-9.3-15-10.5-18.6s-0.9-13.5-0.9-17.6s-1.9-12.9-11.6-18.8
			c-6.6-4-15.2-4.9-22.7-3.3L666,30.1z"/>
		<path class="st0" d="M613.1,103.8c6.6,13.1,22.2,24.2,37.3,21.1c6.6-1.4,11.7-5.3,18.5-2.5c3.9,1.6,7.8,4.7,12,5.1
			c4.1,0.4,9-3,8.7-7.4c-0.6,0.2-1.2,0.5-1.7,1c-1.8,1.5-3.8,4.8-8.9,1.8s-9.8-8-16.8-7.1s-9.8,3.4-16,2.8s-16.8-3.9-23.8-11.8
			s-3.9-1.4-4.5-1s-4.3-3-4.9-2.9S613.1,103.8,613.1,103.8z"/>
		<path class="st0" d="M589.9,141.8c-3.4,0.4-8.3,6.9-10.6,9c-5.7,5.5-11.4,11-17.1,16.5c-16.8,16.4-37.1,29.1-58.3,39
			c-20.6,9.7-43.4,15.9-62.6,28.8c-13,8.7-25,19.3-37.3,28.9c-26.9,20.9-54.8,39.9-85.3,55.4c-5.2,2.6-11.1,5.6-15.2,10
			c-6.5,7-9.6,18.1-18.7,21.1c-5.7,1.9-12.3-0.5-16.3-5s-5.5-10.8-5.2-16.8c-1.2,6.2,0.1,13,4.2,17.9s11,7.4,17.1,5.4
			s10.1-7.7,14.6-12.4c6.7-7.1,15.1-11.4,23.6-16.1c2.4-2.4,7.1-4,10.1-5.6l10.8-6c6.6-3.7,13-7.5,19.4-11.6
			c13.3-8.5,26.1-17.8,38.5-27.5c18.9-14.8,37.3-31.1,58.6-42.2c14.7-7.6,30.6-12.2,45.6-18.9c29.1-13.1,54.3-31,75.5-54.9
			c-1.7,1.2-3.5,2.3-5.4,3.1C574.6,160,591.1,142.1,589.9,141.8z"/>
		<path class="st0" d="M431.2,258.1c-1.7,3.3,20.1,10,22.2,10.6c14.7,4,30,2.9,45.1,2.8c2.6,0,5.5,0,7.7,1.4c2.4,1.6,4,4.3,4.3,7.1
			c0.3,2.9,0.1,5.8-0.4,8.6l2.4,0.1c-0.4,2.2-1.3,4.3-2.6,6.1c10.1-11.4,8.4-29.2-9.4-30.1c-7.8-0.4-15.6,1.1-23.5,0.9
			c-8.4-0.1-16.7-1-24.9-2.8c-3.9-0.9-10.1,0-13.4-1.9C435.9,259.3,431.8,257.1,431.2,258.1z"/>
		<path class="st0" d="M485.3,280.7c0.4,1,1.5,1.6,2.8,2.3c3,1.9,7.8,3.2,8,7.5c0,0.9-0.2,1.8-0.6,2.7c-0.8,2.7-2.2,5.2-4.2,7.1
			c1.4-0.4,3.2-0.7,4.7-1.1c8.8-2.3,3-14.5-0.4-18.9c-1.4-1.8-3-3.5-5.2-4c-1.9-0.4-4.6,0.6-5.1,2.7
			C485.1,279.6,485.1,280.2,485.3,280.7z"/>
		<path class="st0" d="M412.5,211.5l-0.1,0.1c5.8-16.5,22.7-38,40.9-40.8c7.1-1.1,14.3-1.1,21.4-2.1c3.6-0.4,7.1-1.2,10.6-2.3
			c2.8-0.9,5.5-3.2,8.2-3.7c-3,4-7.2,7.2-11.9,9c-5.4,1.9-11.2,0.8-16.7,1.5c-22.6,2.8-35.3,24.5-48.4,40.6c-0.8,1.1-1.8,2-3,2.7
			c-0.3-0.3-0.4-0.8-0.1-1.2c0.2-0.4,0.6-0.6,0.9-1c0.5-0.6,0.6-1.5,0.1-2.2C414,211.5,413.2,211.2,412.5,211.5z"/>
		<path class="st0" d="M389.5,185.3c12.6-10.1,20-27.6,24.5-42.6c2.1-6.9,4.6-17.6,11.1-21.8c2.2-1.2,4.6-2,7-2.2
			c16.4-2.6,32.9-1,49.3-2.7c3.7-0.4,7.9-0.6,11.3-2.1c3.9-1.6,7.5-4,11.5-5.5c-1.2,0.4-2.6,0-3.5-1c-0.2-0.2-0.3-0.4-0.4-0.7
			c0-0.6,0.6-0.9,1.2-1.1l7.1-2.4c-5-0.3-8.8,2-13.5,3.3c-14.4,3.8-27.3,3.6-42.1,3.3c-9.5-0.2-20.1-1.1-28.4,4.2
			c-9.4,6.1-13.4,18.4-16.5,28.6c-1.9,6.4-3.5,12.9-5.9,19.2C399.5,169.5,396.1,179.9,389.5,185.3z"/>
		<path class="st0" d="M276.6,317.9c-0.9-1.1-8.3,10.3-0.8,18.5s9.7,2.7,10.5,1.2s1.2-0.3,2.2-1.2s-0.2-3-3.5-2.8s-7.8-4.8-8-8.8
			S277.2,318.8,276.6,317.9z"/>
		<path class="st0" d="M287.1,314.4c4-3.8,5.1-7.1,10.9-8.4c9.2-2,18.1-5.3,26.3-9.9c4.2-2.4,8.3-5.3,12-8.4
			c1.6-1.3,9.1-6.7,8.7-9.1c-0.3-2-3.2-0.5-2.7-1.8s3.5-3.8,1.8-4s-4,4.2-8.5,7.7c-6.9,5.5-14.4,10.2-22.3,14
			c-5.2,2.4-11,3.2-16.1,6C292.5,303,288.1,309,287.1,314.4z"/>
		<path class="st0" d="M293.3,259.3c1.2,3.2,1,6.8,1.8,10.1c1,4.2,3.7,8.3,7.7,10c8.5,3.6,19.1-2.4,27.5-3.8
			c8-1.4,16.2-1.6,24.3-0.9c6.1,0.6,12.8,1.8,19,0.2c3-0.7,15-6.4,15-10.3c0-0.8-2.3-0.3-1.8-1.5s4-4.2,3-4.3
			c-2.4-0.4-7.7,4.8-9.7,5.9c-6,3.2-12.8,4.6-19.6,3.9c-15.6-1.3-29.5,1-44.2,6.2c-4.7,1.7-11.8,3.5-14.8,0.5
			C296.9,271.2,294.5,265.1,293.3,259.3z"/>
		<path class="st0" d="M306.7,249.3c-1.2-1.5-6.7,6.5-4.3,13.8c2.3,7.3,6.3,9,7.8,8.2s2.5-1.5,2.7-3.5s1.7-4.8-0.2-4.7
			s-5.5,0.2-6.2-3.8s1.7-4.3,1-5.8S307.6,250.3,306.7,249.3z"/>
		<path class="st0" d="M326.2,252.9c7.6-2,12.8-0.6,20.2,0.9c5.4,1.1,14,0.8,18.5-2.8c3-2.3,6-7,4.8-8.5s-1.2-2-0.7-2.8
			s-2-0.5-5,2.3c-4.3,4.1-9.3,6.7-15.3,6.2c-4.3-0.4-8.6-1.9-13-1.4c-2.5,0.3-3.9,1.2-5.9,2.6C329.2,250,325.1,253.2,326.2,252.9z"
			/>
		<path class="st0" d="M383.2,221.5c1.5-0.5,6.7,6.7,7.5,7.8c2.5,3.8,1.9,5.6,1.8,10c0,0.3,0,0.6,0.1,0.9c0.4,0.7,1.3,0.7,2,0.8
			c1,0.2,4.9,5,4.6-0.6c-0.2-3.3,2.8-11.7-5-16.8C390.6,221.2,387.3,220.1,383.2,221.5z"/>
		<path class="st0" d="M319,127c0.9-0.4-5.8,7-10.3,13s-6.5,22.8-10.3,29.8s-11.8,18-11.8,19.5s-3,9.8,8.8,15.3s19,4.5,19,5.8
			s-12-2-18.5-2.3s-15.5-9.5-14.3-14.3s3.8-11.5,10.8-22s4.8-20,5.8-23.3s3.8-7.5,1.8-7.5s-10.5,5-21,6.3s-32.3-1.5-39.8-9
			s-8.8-6-7.3-6.5s7,2.8,7.8,2.5s-1.8-3.8-0.8-3.8s4,7,20.5,9.8S293.2,137.5,319,127z"/>
		<path class="st0" d="M360.7,35.5c-0.1,0.1,7.3,4.8,7.8,5.2c4.9,3.5,9.1,8,12.1,13.2c6.9,12.2,7.5,26,3.9,39.2
			c-3.5,12.8-12.8,22.2-21.3,31.9c-9.2,10.6-20.9,20.4-27,33.3c-4,8.4-4,19,1.3,26.9c12.5,18.3,41.8,18.8,61.1,24
			c14.6,4,15.2,21.9,7.4,32.8c10.2-10.6,9.8-27.3-3.6-34.6c-9.4-5.1-20-7-30.1-10.2c-8.6-2.7-21.1-5-27.6-11.4
			c-11.1-10.7-4-25.4,4.3-34.8c6.6-7.5,13.5-14.8,20-22.5c12.4-14.8,24.6-32.4,24.2-52.6c0-1-0.1-2-0.2-3c-1-12.1-9-29.6-20.1-35.7
			c-2.8-2,3.3,3.5,2,4.3S361.7,34,360.7,35.5z"/>
	</g>
</g>
</svg>
